<?xml version="1.0" encoding="iso-8859-1"?>
<!-- Generator: Adobe Illustrator 19.0.0, SVG Export Plug-In . SVG Version: 6.00 Build 0)  -->
<svg version="1.1" id="Layer_1" xmlns="http://www.w3.org/2000/svg" xmlns:xlink="http://www.w3.org/1999/xlink" x="0px" y="0px"
	 viewBox="0 0 496.158 496.158" style="enable-background:new 0 0 496.158 496.158;" xml:space="preserve">
<path style="fill:#6DB4BF;" d="M248.082,0.003C111.07,0.003,0,111.063,0,248.085c0,137.001,111.07,248.07,248.082,248.07
	c137.006,0,248.076-111.069,248.076-248.07C496.158,111.062,385.088,0.003,248.082,0.003z"/>
<path style="fill:#B9C9B5;" d="M314.94,65.808c0,0-27.925-6.396-70.483-6.396c-42.561,0-63.24,6.396-63.24,6.396
	c-7.295,0-13.207,5.914-13.207,13.208h160.139C328.148,71.722,322.236,65.808,314.94,65.808z"/>
<path style="fill:#C3D7BE;" d="M314.94,65.808H181.217c-7.295,0-13.207,5.914-13.207,13.208v403.926
	c25.121,8.562,52.053,13.212,80.072,13.212c28.018,0,54.947-4.65,80.066-13.211V79.017C328.148,71.722,322.236,65.808,314.94,65.808
	z"/>
<path style="fill:#DEE5DC;" d="M304.49,398.435c0,0-23.561-5.396-59.467-5.396c-35.908,0-53.356,5.396-53.356,5.396
	c-6.155,0-11.143,4.989-11.143,11.144v77.262c21.479,6.065,44.138,9.314,67.558,9.314c23.417,0,46.075-3.249,67.552-9.313v-77.263
	C315.634,403.425,310.645,398.435,304.49,398.435z"/>
<g>
	<circle style="fill:#5E5E5E;" cx="202.459" cy="176.579" r="13.5"/>
	<circle style="fill:#5E5E5E;" cx="248.959" cy="176.579" r="13.5"/>
	<circle style="fill:#5E5E5E;" cx="295.459" cy="176.579" r="13.5"/>
	<circle style="fill:#5E5E5E;" cx="202.459" cy="135.079" r="13.5"/>
	<circle style="fill:#5E5E5E;" cx="248.959" cy="135.079" r="13.5"/>
	<circle style="fill:#5E5E5E;" cx="295.459" cy="135.079" r="13.5"/>
	<circle style="fill:#5E5E5E;" cx="202.459" cy="218.579" r="13.5"/>
	<circle style="fill:#5E5E5E;" cx="248.959" cy="218.579" r="13.5"/>
	<circle style="fill:#5E5E5E;" cx="295.459" cy="218.579" r="13.5"/>
	<circle style="fill:#5E5E5E;" cx="202.459" cy="260.579" r="13.5"/>
</g>
<g>
	<circle style="fill:#848484;" cx="198.209" cy="297.329" r="9.25"/>
	<circle style="fill:#848484;" cx="198.209" cy="374.829" r="9.25"/>
	<circle style="fill:#848484;" cx="299.289" cy="297.329" r="9.25"/>
	<circle style="fill:#848484;" cx="299.289" cy="374.829" r="9.25"/>
</g>
<g>
	<circle style="fill:#5E5E5E;" cx="248.959" cy="260.579" r="13.5"/>
	<circle style="fill:#5E5E5E;" cx="295.459" cy="260.579" r="13.5"/>
</g>
<circle style="fill:#CC2200;" cx="201.459" cy="91.079" r="13"/>
<g>
	<ellipse style="fill:#5E5E5E;" cx="202.459" cy="419.579" rx="13.5" ry="6.527"/>
	<ellipse style="fill:#5E5E5E;" cx="248.959" cy="419.579" rx="13.5" ry="6.527"/>
	<ellipse style="fill:#5E5E5E;" cx="295.459" cy="419.579" rx="13.5" ry="6.527"/>
	<ellipse style="fill:#5E5E5E;" cx="202.459" cy="445.219" rx="13.5" ry="6.527"/>
	<ellipse style="fill:#5E5E5E;" cx="248.959" cy="445.219" rx="13.5" ry="6.527"/>
	<ellipse style="fill:#5E5E5E;" cx="295.459" cy="445.219" rx="13.5" ry="6.527"/>
	<ellipse style="fill:#5E5E5E;" cx="202.459" cy="470.859" rx="13.5" ry="6.527"/>
	<ellipse style="fill:#5E5E5E;" cx="248.959" cy="470.859" rx="13.5" ry="6.527"/>
	<ellipse style="fill:#5E5E5E;" cx="295.459" cy="470.859" rx="13.5" ry="6.527"/>
	<path style="fill:#5E5E5E;" d="M241.95,333.499l-21.404-21.405c-0.411-0.412-0.971-0.621-1.562-0.581
		c-0.58,0.043-1.113,0.336-1.459,0.804c-9.862,13.304-9.862,31.887,0,45.191c0.347,0.467,0.879,0.761,1.459,0.804
		c0.05,0.003,0.099,0.005,0.147,0.005c0.528,0,1.038-0.209,1.414-0.586l21.404-21.404
		C242.731,335.547,242.731,334.28,241.95,333.499z"/>
	<path style="fill:#5E5E5E;" d="M270.676,304.359c-6.568-4.87-14.382-7.443-22.596-7.443c-8.215,0-16.028,2.574-22.598,7.444
		c-0.467,0.346-0.761,0.879-0.803,1.459c-0.043,0.58,0.169,1.15,0.58,1.562l21.404,21.404c0.391,0.391,0.902,0.586,1.414,0.586
		c0.512,0,1.023-0.195,1.414-0.586l21.406-21.405c0.411-0.411,0.623-0.981,0.58-1.562
		C271.436,305.238,271.142,304.705,270.676,304.359z"/>
	<path style="fill:#5E5E5E;" d="M270.897,362.447l-21.405-21.405c-0.75-0.75-2.078-0.75-2.828,0l-21.404,21.405
		c-0.411,0.411-0.623,0.981-0.58,1.562c0.042,0.58,0.336,1.113,0.803,1.459c6.569,4.869,14.383,7.442,22.597,7.442
		c0.001,0,0.001,0,0.001,0c8.214,0,16.027-2.574,22.595-7.443c0.467-0.346,0.761-0.879,0.803-1.459
		C271.52,363.428,271.308,362.858,270.897,362.447z"/>
	<path style="fill:#5E5E5E;" d="M278.634,312.317c-0.346-0.467-0.879-0.761-1.459-0.804c-0.589-0.04-1.151,0.169-1.562,0.581
		l-21.406,21.405c-0.375,0.375-0.586,0.884-0.586,1.414s0.211,1.039,0.586,1.414l21.404,21.404c0.376,0.376,0.887,0.586,1.414,0.586
		c0.049,0,0.098-0.002,0.147-0.005c0.58-0.043,1.112-0.336,1.459-0.804C288.495,344.205,288.496,325.622,278.634,312.317z"/>
</g>
<g>
</g>
<g>
</g>
<g>
</g>
<g>
</g>
<g>
</g>
<g>
</g>
<g>
</g>
<g>
</g>
<g>
</g>
<g>
</g>
<g>
</g>
<g>
</g>
<g>
</g>
<g>
</g>
<g>
</g>
</svg>
