<?xml version="1.0" encoding="iso-8859-1"?>
<!-- Generator: Adobe Illustrator 19.0.0, SVG Export Plug-In . SVG Version: 6.00 Build 0)  -->
<svg version="1.1" id="Layer_1" xmlns="http://www.w3.org/2000/svg" xmlns:xlink="http://www.w3.org/1999/xlink" x="0px" y="0px"
	 viewBox="0 0 512 512" style="enable-background:new 0 0 512 512;" xml:space="preserve">
<g>
	<g>
		<path d="M255.992,0c-67.875,0-106.656,42.664-106.656,42.664v384.008c0,0,11.75,85.328,108.109,85.328
			s105.219-85.328,105.219-85.328V42.664C362.664,42.664,323.883,0,255.992,0z M341.337,425.203L341.337,425.203
			c-0.61,3.766-3.563,18.938-13.735,33.516c-14.781,21.203-38.375,31.953-70.156,31.953c-31.984,0-56.156-10.891-71.844-32.359
			c-10.484-14.359-14.078-29.266-14.938-33.516V51.922c3.875-3.266,9.719-7.719,17.344-12.188
			c9.109-5.344,18.828-9.602,28.891-12.656c12.562-3.812,25.719-5.742,39.094-5.742c23.766,0,46.188,5.922,66.656,17.617
			c8.266,4.727,14.562,9.508,18.688,12.977V425.203z"/>
	</g>
</g>
<g>
	<g>
		<path d="M212.805,426.672c-5.906,0-10.672,4.781-10.672,10.656c0,5.906,4.766,10.672,10.672,10.672
			c5.875,0,10.656-4.766,10.656-10.672C223.461,431.453,218.68,426.672,212.805,426.672z"/>
	</g>
</g>
<g>
	<g>
		<path d="M255.461,426.672c-5.891,0-10.656,4.781-10.656,10.656c0,5.906,4.766,10.672,10.656,10.672s10.672-4.766,10.672-10.672
			C266.133,431.453,261.352,426.672,255.461,426.672z"/>
	</g>
</g>
<g>
	<g>
		<path d="M298.133,426.672c-5.891,0-10.672,4.781-10.672,10.656c0,5.906,4.781,10.672,10.672,10.672s10.672-4.766,10.672-10.672
			C308.805,431.453,304.023,426.672,298.133,426.672z"/>
	</g>
</g>
<g>
	<g>
		<path d="M213.336,149.336h-21.344c-5.875,0-10.656,4.773-10.656,10.664s4.781,10.664,10.656,10.664h21.344
			c5.891,0,10.656-4.773,10.656-10.664S219.226,149.336,213.336,149.336z"/>
	</g>
</g>
<g>
	<g>
		<path d="M266.664,149.336h-21.328c-5.891,0-10.672,4.773-10.672,10.664s4.781,10.664,10.672,10.664h21.328
			c5.891,0,10.672-4.773,10.672-10.664S272.555,149.336,266.664,149.336z"/>
	</g>
</g>
<g>
	<g>
		<path d="M319.992,149.336h-21.328c-5.891,0-10.672,4.773-10.672,10.664s4.781,10.664,10.672,10.664h21.328
			c5.906,0,10.672-4.773,10.672-10.664S325.898,149.336,319.992,149.336z"/>
	</g>
</g>
<g>
	<g>
		<path d="M213.336,192h-21.344c-5.875,0-10.656,4.773-10.656,10.664s4.781,10.672,10.656,10.672h21.344
			c5.891,0,10.656-4.781,10.656-10.672S219.227,192,213.336,192z"/>
	</g>
</g>
<g>
	<g>
		<path d="M266.664,192h-21.328c-5.891,0-10.672,4.773-10.672,10.664s4.781,10.672,10.672,10.672h21.328
			c5.891,0,10.672-4.781,10.672-10.672S272.555,192,266.664,192z"/>
	</g>
</g>
<g>
	<g>
		<path d="M319.992,192h-21.328c-5.891,0-10.672,4.773-10.672,10.664s4.781,10.672,10.672,10.672h21.328
			c5.906,0,10.672-4.781,10.672-10.672S325.898,192,319.992,192z"/>
	</g>
</g>
<g>
	<g>
		<path d="M213.336,234.664h-21.344c-5.875,0-10.656,4.781-10.656,10.672S186.117,256,191.992,256h21.344
			c5.891,0,10.656-4.773,10.656-10.664S219.226,234.664,213.336,234.664z"/>
	</g>
</g>
<g>
	<g>
		<path d="M266.664,234.664h-21.328c-5.891,0-10.672,4.781-10.672,10.672S239.445,256,245.336,256h21.328
			c5.891,0,10.672-4.773,10.672-10.664S272.555,234.664,266.664,234.664z"/>
	</g>
</g>
<g>
	<g>
		<path d="M319.992,234.664h-21.328c-5.891,0-10.672,4.781-10.672,10.672S292.773,256,298.664,256h21.328
			c5.906,0,10.672-4.773,10.672-10.664S325.898,234.664,319.992,234.664z"/>
	</g>
</g>
<g>
	<g>
		<path d="M298.664,53.336c-17.672,0-32,14.328-32,32s14.328,32,32,32s32-14.328,32-32S316.336,53.336,298.664,53.336z M298.664,96
			c-5.875,0-10.672-4.789-10.672-10.664c0-5.883,4.797-10.672,10.672-10.672c5.891,0,10.672,4.789,10.672,10.672
			C309.336,91.211,304.555,96,298.664,96z"/>
	</g>
</g>
<g>
	<g>
		<path d="M300.492,311.921l-15.609,15.61c2.047,4.266,3.109,8.953,3.109,13.797c0,4.859-1.062,9.562-3.109,13.812l15.609,15.609
			C312.273,352.968,312.273,329.702,300.492,311.921z"/>
	</g>
</g>
<g>
	<g>
		<path d="M227.117,327.532l-15.609-15.61c-11.781,17.781-11.781,41.047,0,58.828l15.609-15.609
			c-2.031-4.25-3.125-8.953-3.125-13.812C223.992,336.485,225.086,331.798,227.117,327.532z"/>
	</g>
</g>
<g>
	<g>
		<path d="M269.805,370.219c-4.25,2.047-8.953,3.109-13.813,3.109c-4.844,0-9.531-1.062-13.797-3.109l-15.609,15.609
			c8.891,5.891,19.156,8.844,29.406,8.844c10.266,0,20.531-2.953,29.422-8.844L269.805,370.219z"/>
	</g>
</g>
<g>
	<g>
		<path d="M255.991,288c-10.25,0-20.516,2.953-29.406,8.828l15.609,15.625c4.267-2.031,8.954-3.125,13.798-3.125
			c4.859,0,9.562,1.094,13.812,3.125l15.609-15.625C276.522,290.953,266.257,288,255.991,288z"/>
	</g>
</g>
<g>
	<g>
		<path d="M255.992,330.672c-5.875,0-10.656,4.781-10.656,10.656c0,5.906,4.781,10.672,10.656,10.672
			c5.906,0,10.672-4.766,10.672-10.672C266.664,335.453,261.898,330.672,255.992,330.672z"/>
	</g>
</g>
<g>
</g>
<g>
</g>
<g>
</g>
<g>
</g>
<g>
</g>
<g>
</g>
<g>
</g>
<g>
</g>
<g>
</g>
<g>
</g>
<g>
</g>
<g>
</g>
<g>
</g>
<g>
</g>
<g>
</g>
</svg>
