<?xml version="1.0" encoding="iso-8859-1"?>
<!-- Generator: Adobe Illustrator 19.0.0, SVG Export Plug-In . SVG Version: 6.00 Build 0)  -->
<svg version="1.1" id="Layer_1" xmlns="http://www.w3.org/2000/svg" xmlns:xlink="http://www.w3.org/1999/xlink" x="0px" y="0px"
	 viewBox="0 0 512 512" style="enable-background:new 0 0 512 512;" xml:space="preserve">
<circle style="fill:#C2D5D8;" cx="256" cy="256" r="256"/>
<path style="fill:#263740;" d="M340,424c0,8.8-7.2,16-16,16H188c-8.8,0-16-7.2-16-16V120c0-8.8,7.2-16,16-16h136c8.8,0,16,7.2,16,16
	V424z"/>
<circle style="fill:#CC584C;" cx="200" cy="136" r="12"/>
<path style="fill:#CCCCCC;" d="M300,312h-32v-32c0-4.4-3.6-8-8-8h-8c-4.4,0-8,3.6-8,8v32h-32c-4.4,0-8,3.6-8,8v8c0,4.4,3.6,8,8,8h32
	v32c0,4.4,3.6,8,8,8h8c4.4,0,8-3.6,8-8v-32h32c4.4,0,8-3.6,8-8v-8C308,315.6,304.4,312,300,312z"/>
<path style="fill:#B3B3B3;" d="M268,298.744c-3.644-1.74-7.704-2.744-12-2.744s-8.356,1.004-12,2.744V312h-13.256
	c-1.74,3.644-2.744,7.704-2.744,12s1.004,8.356,2.744,12H244v13.256c3.644,1.74,7.704,2.744,12,2.744c4.296,0,8.356-1.004,12-2.744
	V336h13.256c1.74-3.644,2.744-7.704,2.744-12s-1.004-8.356-2.744-12H268V298.744z"/>
<circle style="fill:#F5F5F5;" cx="256" cy="324" r="20"/>
<g>
	<polygon style="fill:#263740;" points="248,288 256,280 264,288 	"/>
	<polygon style="fill:#263740;" points="248,360 256,368 264,360 	"/>
	<polygon style="fill:#263740;" points="220,332 212,324 220,316 	"/>
	<polygon style="fill:#263740;" points="292,332 300,324 292,316 	"/>
</g>
<g>
	<path style="fill:#B3B3B3;" d="M245.344,324.072c0-1.132,0.168-2.084,0.508-2.864c0.252-0.568,0.6-1.076,1.04-1.528
		c0.44-0.452,0.916-0.784,1.44-1.004c0.696-0.292,1.496-0.44,2.404-0.44c1.644,0,2.956,0.508,3.944,1.532
		c0.984,1.02,1.48,2.432,1.48,4.252c0,1.8-0.492,3.208-1.468,4.228c-0.98,1.02-2.288,1.528-3.92,1.528
		c-1.66,0-2.976-0.504-3.956-1.516C245.832,327.24,245.344,325.844,245.344,324.072z M247.66,323.992
		c0,1.256,0.292,2.22,0.876,2.872s1.324,0.976,2.228,0.976c0.9,0,1.628-0.32,2.212-0.968c0.576-0.644,0.864-1.612,0.864-2.912
		c0-1.276-0.28-2.236-0.844-2.86c-0.56-0.628-1.3-0.94-2.232-0.94c-0.932,0-1.676,0.316-2.248,0.952S247.66,322.712,247.66,323.992z
		"/>
	<path style="fill:#B3B3B3;" d="M257.944,329.576v-11.144h2.252v4.944l4.548-4.944h3.032l-4.204,4.344l4.424,6.8h-2.916
		l-3.068-5.232l-1.824,1.864v3.368H257.944z"/>
	<path style="fill:#B3B3B3;" d="M244,244c0,4.4-3.6,8-8,8h-16c-4.4,0-8-3.6-8-8v-64c0-4.4,3.6-8,8-8h16c4.4,0,8,3.6,8,8V244z"/>
	<path style="fill:#B3B3B3;" d="M300,244c0,4.4-3.6,8-8,8h-16c-4.4,0-8-3.6-8-8v-64c0-4.4,3.6-8,8-8h16c4.4,0,8,3.6,8,8V244z"/>
</g>
<g>
	<path style="fill:#F5F5F5;" d="M236,196h-16c-2.212,0-4-1.788-4-4s1.788-4,4-4h16c2.212,0,4,1.788,4,4S238.212,196,236,196z"/>
	<path style="fill:#F5F5F5;" d="M292,196c-1.024,0-2.048-0.392-2.828-1.172L284,189.656l-5.172,5.172
		c-1.564,1.564-4.092,1.564-5.656,0s-1.564-4.092,0-5.656l8-8c1.564-1.564,4.092-1.564,5.656,0l8,8c1.564,1.564,1.564,4.092,0,5.656
		C294.048,195.608,293.024,196,292,196z"/>
	<path style="fill:#F5F5F5;" d="M284,244c-1.024,0-2.048-0.392-2.828-1.172l-8-8c-1.564-1.564-1.564-4.092,0-5.656
		s4.092-1.564,5.656,0l5.172,5.172l5.172-5.172c1.564-1.564,4.092-1.564,5.656,0s1.564,4.092,0,5.656l-8,8
		C286.048,243.608,285.024,244,284,244z"/>
	<path style="fill:#F5F5F5;" d="M236,240h-16c-2.212,0-4-1.788-4-4s1.788-4,4-4h16c2.212,0,4,1.788,4,4S238.212,240,236,240z"/>
	<path style="fill:#F5F5F5;" d="M228,204c-2.212,0-4-1.788-4-4v-16c0-2.212,1.788-4,4-4s4,1.788,4,4v16
		C232,202.212,230.212,204,228,204z"/>
</g>
<path style="fill:#E16B5A;" d="M224,400c0,2.212-1.788,4-4,4h-16c-2.212,0-4-1.788-4-4v-8c0-2.212,1.788-4,4-4h16
	c2.212,0,4,1.788,4,4V400z"/>
<path style="fill:#FFD464;" d="M252,400c0,2.212-1.788,4-4,4h-16c-2.212,0-4-1.788-4-4v-8c0-2.212,1.788-4,4-4h16
	c2.212,0,4,1.788,4,4V400z"/>
<path style="fill:#198058;" d="M280,400c0,2.212-1.788,4-4,4h-16c-2.212,0-4-1.788-4-4v-8c0-2.212,1.788-4,4-4h16
	c2.212,0,4,1.788,4,4V400z"/>
<path style="fill:#2179A6;" d="M308,400c0,2.212-1.788,4-4,4h-16c-2.212,0-4-1.788-4-4v-8c0-2.212,1.788-4,4-4h16
	c2.212,0,4,1.788,4,4V400z"/>
<g>
	<path style="fill:#F5F5F5;" d="M290.908,95.028c-1.024,0-2.048-0.392-2.828-1.172c-17.152-17.152-45.068-17.16-62.224,0
		c-1.564,1.568-4.088,1.568-5.656,0c-1.564-1.564-1.564-4.088,0-5.656c20.276-20.272,53.264-20.264,73.536,0
		c1.568,1.568,1.568,4.092,0,5.656C292.952,94.636,291.928,95.028,290.908,95.028z"/>
	<path style="fill:#F5F5F5;" d="M208.884,80.888c-1.024,0-2.048-0.392-2.828-1.172c-1.564-1.564-1.564-4.088,0-5.656
		c13.596-13.592,31.68-21.084,50.916-21.084s37.312,7.492,50.912,21.084c1.568,1.568,1.568,4.092,0,5.656
		c-1.564,1.568-4.088,1.568-5.656,0c-12.084-12.084-28.156-18.748-45.252-18.748s-33.172,6.66-45.256,18.748
		C210.928,80.496,209.908,80.888,208.884,80.888z"/>
	<path style="fill:#F5F5F5;" d="M319.196,66.744c-1.024,0-2.048-0.392-2.828-1.172c-32.752-32.752-86.048-32.752-118.796,0
		c-1.564,1.568-4.088,1.568-5.656,0c-1.564-1.564-1.564-4.088,0-5.656c35.872-35.868,94.248-35.868,130.108,0
		c1.568,1.568,1.568,4.092,0,5.656C321.244,66.352,320.22,66.744,319.196,66.744z"/>
</g>
<g>
</g>
<g>
</g>
<g>
</g>
<g>
</g>
<g>
</g>
<g>
</g>
<g>
</g>
<g>
</g>
<g>
</g>
<g>
</g>
<g>
</g>
<g>
</g>
<g>
</g>
<g>
</g>
<g>
</g>
</svg>
