<?xml version="1.0" encoding="iso-8859-1"?>
<!-- Generator: Adobe Illustrator 19.0.0, SVG Export Plug-In . SVG Version: 6.00 Build 0)  -->
<svg version="1.1" id="Layer_1" xmlns="http://www.w3.org/2000/svg" xmlns:xlink="http://www.w3.org/1999/xlink" x="0px" y="0px"
	 viewBox="0 0 512 512" style="enable-background:new 0 0 512 512;" xml:space="preserve">
<polygon style="fill:#656D78;" points="346.805,316.703 346.805,43.375 285.414,18.047 226.586,14.047 157.477,48.047
	157.477,376.047 181.336,469.375 250.148,499.375 309.32,490.047 356.805,426.672 "/>
<path style="fill:#DA4453;" d="M316.82,83.547c0,10.031-7.031,18.156-15.703,18.156s-15.703-8.125-15.703-18.156
	s7.031-18.172,15.703-18.172S316.82,73.516,316.82,83.547z"/>
<path d="M255.992,0c-67.875,0-106.656,42.672-106.656,42.672v384c0,0,11.75,85.328,108.109,85.328s105.219-85.328,105.219-85.328
	v-384C362.664,42.672,323.883,0,255.992,0z M341.336,425.203c-0.609,3.766-3.562,18.938-13.734,33.516
	c-14.781,21.203-38.375,31.953-70.156,31.953c-31.984,0-56.156-10.891-71.844-32.359c-10.484-14.359-14.078-29.266-14.938-33.516
	V51.922c3.875-3.266,9.719-7.719,17.344-12.188c9.109-5.344,18.828-9.594,28.891-12.656c12.562-3.812,25.719-5.75,39.094-5.75
	c23.766,0,46.188,5.938,66.656,17.625c8.266,4.719,14.562,9.5,18.688,12.969L341.336,425.203L341.336,425.203z"/>
<path d="M212.805,426.672c-5.906,0-10.672,4.781-10.672,10.656c0,5.906,4.766,10.672,10.672,10.672
	c5.875,0,10.656-4.766,10.656-10.672C223.461,431.453,218.68,426.672,212.805,426.672z"/>
<path d="M255.461,426.672c-5.891,0-10.656,4.781-10.656,10.656c0,5.906,4.766,10.672,10.656,10.672
	c5.89,0,10.672-4.766,10.672-10.672C266.133,431.453,261.352,426.672,255.461,426.672z"/>
<path d="M298.133,426.672c-5.891,0-10.672,4.781-10.672,10.656c0,5.906,4.781,10.672,10.672,10.672s10.672-4.766,10.672-10.672
	C308.805,431.453,304.023,426.672,298.133,426.672z"/>
<path d="M191.992,170.672h21.344c5.891,0,10.656-4.781,10.656-10.672s-4.766-10.672-10.656-10.672h-21.344
	c-5.875,0-10.656,4.781-10.656,10.672S186.117,170.672,191.992,170.672z"/>
<path d="M245.336,170.672h21.328c5.891,0,10.672-4.781,10.672-10.672s-4.781-10.672-10.672-10.672h-21.328
	c-5.891,0-10.672,4.781-10.672,10.672S239.445,170.672,245.336,170.672z"/>
<path d="M319.992,149.328h-21.328c-5.891,0-10.672,4.781-10.672,10.672s4.781,10.672,10.672,10.672h21.328
	c5.906,0,10.672-4.781,10.672-10.672S325.898,149.328,319.992,149.328z"/>
<path d="M191.992,213.328h21.344c5.891,0,10.656-4.781,10.656-10.656c0-5.906-4.766-10.672-10.656-10.672h-21.344
	c-5.875,0-10.656,4.766-10.656,10.672C181.336,208.547,186.117,213.328,191.992,213.328z"/>
<path d="M245.336,213.328h21.328c5.891,0,10.672-4.781,10.672-10.656c0-5.906-4.781-10.672-10.672-10.672h-21.328
	c-5.891,0-10.672,4.766-10.672,10.672C234.664,208.547,239.445,213.328,245.336,213.328z"/>
<path d="M319.992,192h-21.328c-5.891,0-10.672,4.766-10.672,10.672c0,5.875,4.781,10.656,10.672,10.656h21.328
	c5.906,0,10.672-4.781,10.672-10.656C330.664,196.766,325.898,192,319.992,192z"/>
<path d="M223.992,245.328c0-5.875-4.766-10.656-10.656-10.656h-21.344c-5.875,0-10.656,4.781-10.656,10.656
	c0,5.906,4.781,10.672,10.656,10.672h21.344C219.227,256,223.992,251.234,223.992,245.328z"/>
<path d="M245.336,256h21.328c5.891,0,10.672-4.766,10.672-10.672c0-5.875-4.781-10.656-10.672-10.656h-21.328
	c-5.891,0-10.672,4.781-10.672,10.656C234.664,251.234,239.445,256,245.336,256z"/>
<path d="M319.992,234.672h-21.328c-5.891,0-10.672,4.781-10.672,10.656c0,5.906,4.781,10.672,10.672,10.672h21.328
	c5.906,0,10.672-4.766,10.672-10.672C330.664,239.453,325.898,234.672,319.992,234.672z"/>
<path d="M298.664,53.328c-17.672,0-32,14.344-32,32c0,17.688,14.328,32,32,32s32-14.312,32-32
	C330.664,67.672,316.336,53.328,298.664,53.328z M298.664,96c-5.875,0-10.672-4.797-10.672-10.672s4.797-10.656,10.672-10.656
	c5.891,0,10.672,4.781,10.672,10.656S304.555,96,298.664,96z"/>
<path d="M284.883,327.531c2.047,4.266,3.109,8.953,3.109,13.797c0,4.859-1.062,9.562-3.109,13.812l15.609,15.609
	c11.781-17.781,11.781-41.047,0-58.828L284.883,327.531z"/>
<path d="M211.508,311.922c-11.781,17.781-11.781,41.047,0,58.828l15.609-15.609c-2.031-4.25-3.125-8.953-3.125-13.812
	c0-4.844,1.094-9.531,3.125-13.797L211.508,311.922z"/>
<path d="M255.992,373.328c-4.844,0-9.531-1.062-13.797-3.109l-15.609,15.609c8.891,5.891,19.156,8.844,29.406,8.844
	c10.266,0,20.531-2.953,29.422-8.844l-15.609-15.609C265.555,372.266,260.852,373.328,255.992,373.328z"/>
<path d="M255.992,309.328c4.859,0,9.562,1.094,13.812,3.125l15.609-15.625c-8.891-5.875-19.156-8.828-29.422-8.828
	c-10.25,0-20.516,2.953-29.406,8.828l15.609,15.625C246.461,310.422,251.148,309.328,255.992,309.328z"/>
<path d="M245.336,341.328c0,5.906,4.781,10.672,10.656,10.672c5.906,0,10.672-4.766,10.672-10.672
	c0-5.875-4.766-10.656-10.672-10.656C250.117,330.672,245.336,335.453,245.336,341.328z"/>
<g>
</g>
<g>
</g>
<g>
</g>
<g>
</g>
<g>
</g>
<g>
</g>
<g>
</g>
<g>
</g>
<g>
</g>
<g>
</g>
<g>
</g>
<g>
</g>
<g>
</g>
<g>
</g>
<g>
</g>
</svg>
